<svg xmlns="http://www.w3.org/2000/svg" viewBox="0 0 48 48" width="25" height="25"><radialGradient id="a" cx="24" cy="10.01" r="32.25" gradientUnits="userSpaceOnUse"><stop offset="0" stop-color="#8c9eff"/><stop offset=".37" stop-color="#889af8"/><stop offset=".89" stop-color="#7e8fe6"/><stop offset="1" stop-color="#7b8ce1"/></radialGradient><path fill="url(#a)" d="M40.1 12.15a.94.94 0 0 0-.23-.26 21 21 0 0 0-9.72-3.87c-.1 0-.18.05-.22.14l-.27.53a.25.25 0 0 0 .14.35l.06.02A19.73 19.73 0 0 1 39.01 14c-4.05-2.06-8.04-4-15.01-4s-10.96 1.94-15 4a19.73 19.73 0 0 1 9.14-4.94l.06-.02a.25.25 0 0 0 .14-.34l-.27-.54a.25.25 0 0 0-.22-.14h-.06a21 21 0 0 0-9.66 3.88.96.96 0 0 0-.24.25c-.7 1.1-5.05 8.39-5.89 21.63 0 .14.04.3.14.4 4.59 5.14 11.18 5.75 12.58 5.82a.5.5 0 0 0 .43-.2l1.28-1.7a.24.24 0 0 0-.1-.39 20 20 0 0 1-8.34-5.7C11.23 34.46 16.12 37 24 37s12.77-2.54 16-5c-2.6 3.01-5.62 4.73-8.32 5.71a.24.24 0 0 0-.11.38l1.28 1.71c.1.14.26.2.42.2 1.41-.07 8-.68 12.6-5.82.09-.1.14-.26.13-.4-.84-13.24-5.19-20.52-5.9-21.63z"/><ellipse cx="30.5" cy="26" opacity=".05" rx="4.5" ry="5"/><ellipse cx="30.5" cy="26" opacity=".05" rx="4" ry="4.5"/><ellipse cx="30.5" cy="26" fill="#fff" rx="3.5" ry="4"/><ellipse cx="17.5" cy="26" opacity=".05" rx="4.5" ry="5"/><ellipse cx="17.5" cy="26" opacity=".05" rx="4" ry="4.5"/><ellipse cx="17.5" cy="26" fill="#fff" rx="3.5" ry="4"/></svg>