<svg xmlns="http://www.w3.org/2000/svg" viewBox="0 0 48 48" width="25" height="25" fill-rule="evenodd" clip-rule="evenodd"><path fill="#fff" d="m4.87 43.3 2.7-9.83a19.01 19.01 0 0 1 29.88-22.9 19.01 19.01 0 0 1-13.43 32.4H24c-3.18 0-6.3-.8-9.08-2.3L4.87 43.3z"/><path fill="#fff" d="M4.87 43.8a.5.5 0 0 1-.48-.63l2.64-9.63A19.48 19.48 0 0 1 24 4.5c5.21 0 10.1 2.03 13.79 5.71A19.51 19.51 0 0 1 14.87 41.2l-9.88 2.6a.46.46 0 0 1-.12.01z"/><path fill="#cfd8dc" d="M24.01 5c5.08 0 9.85 1.98 13.43 5.57a19.01 19.01 0 0 1-13.43 32.4c-3.18 0-6.3-.8-9.08-2.3L4.87 43.3l2.7-9.83A19.01 19.01 0 0 1 24.01 5m0-1A20.01 20.01 0 0 0 6.48 33.6L3.9 43.04a1 1 0 0 0 1.22 1.23l9.69-2.54A20.01 20.01 0 0 0 44 24c0-5.33-2.08-10.35-5.86-14.13A19.87 19.87 0 0 0 24.01 4z"/><path fill="#40c351" d="M35.18 12.83a15.8 15.8 0 0 0-24.53 19.54l.37.6-1.6 5.82 5.98-1.56.58.34a15.8 15.8 0 0 0 19.2-24.74z"/><path fill="#fff" d="M19.27 16.05c-.36-.8-.73-.81-1.07-.82-.28-.02-.6-.02-.9-.02-.33 0-.84.12-1.27.6-.44.47-1.67 1.62-1.67 3.95 0 2.34 1.7 4.6 1.94 4.91.24.32 3.28 5.26 8.1 7.16 4.01 1.58 4.83 1.27 5.7 1.19.87-.08 2.8-1.15 3.2-2.26.4-1.1.4-2.05.28-2.25-.12-.2-.44-.32-.91-.56s-2.8-1.38-3.24-1.54c-.44-.16-.75-.24-1.07.24-.32.47-1.23 1.54-1.5 1.86-.28.32-.56.36-1.03.12-.48-.24-2-.74-3.82-2.36A14.3 14.3 0 0 1 19.37 23c-.27-.48-.03-.73.21-.97.22-.21.48-.55.71-.83.24-.28.32-.48.48-.8.16-.3.08-.59-.04-.82-.12-.24-1.04-2.59-1.46-3.52z"/></svg>